<?xml version="1.0" encoding="UTF-8" standalone="no"?>
<!-- Created with Inkscape (http://www.inkscape.org/) -->
<svg xmlns:dc="http://purl.org/dc/elements/1.1/" xmlns:cc="http://creativecommons.org/ns#" xmlns:rdf="http://www.w3.org/1999/02/22-rdf-syntax-ns#" xmlns:svg="http://www.w3.org/2000/svg" xmlns="http://www.w3.org/2000/svg" xmlns:sodipodi="http://sodipodi.sourceforge.net/DTD/sodipodi-0.dtd" xmlns:inkscape="http://www.inkscape.org/namespaces/inkscape" width="72.000008mm" height="43.278595mm" viewBox="0 0 255.11814 153.34935" id="svg7161" version="1.1" inkscape:version="0.91 r13725" sodipodi:docname="car sketch.svg">
  <defs id="defs7163"/>
  <sodipodi:namedview id="base" pagecolor="#ffffff" bordercolor="#666666" borderopacity="1.0" inkscape:pageopacity="0.0" inkscape:pageshadow="2" inkscape:zoom="0.35" inkscape:cx="-283.57143" inkscape:cy="519.99996" inkscape:document-units="px" inkscape:current-layer="layer1" showgrid="false" fit-margin-top="0" fit-margin-left="0" fit-margin-right="0" fit-margin-bottom="0" inkscape:window-width="1280" inkscape:window-height="1002" inkscape:window-x="-8" inkscape:window-y="-8" inkscape:window-maximized="1"/>
  <metadata id="metadata7166">
    <rdf:RDF>
      <cc:Work rdf:about="">
        <dc:format>image/svg+xml</dc:format>
        <dc:type rdf:resource="http://purl.org/dc/dcmitype/StillImage"/>
        <dc:title/>
      </cc:Work>
    </rdf:RDF>
  </metadata>
  <g inkscape:label="Layer 1" inkscape:groupmode="layer" id="layer1" transform="translate(0,-899.01282)">
    <path inkscape:connector-curvature="0" style="fill:#008000;fill-opacity:1;fill-rule:nonzero;stroke:none" d="m 119.61685,899.01282 c -16.8679,0.31195 -33.713373,3.69117 -49.530511,9.73301 -0.763393,0.11436 -1.531503,0.25382 -2.297057,0.3793 -0.278593,-0.35752 -0.655105,-0.59964 -1.111118,-0.53955 -1.648084,0.48063 -3.27212,1.03001 -4.887888,1.60793 -0.132108,0.0274 -0.263112,0.0426 -0.395304,0.0695 -0.116761,0.0402 -0.199381,0.10992 -0.288469,0.17641 -15.401327,5.65375 -29.172786,15.65749 -39.701334,28.26425 -2.375406,-1.4968 -4.718387,-3.03489 -6.99796,-4.63679 -1.391475,-0.46155 -2.805775,1.19979 -1.896365,2.3451 2.33193,1.63815 4.749371,3.2107 7.206269,4.749 -1.835536,1.84413 -3.623072,3.7328 -5.347296,5.68381 C 8.9065042,953.02605 1.7846321,962.78986 0,974.18488 c 0.13675231,1.45981 1.9017283,1.65726 2.5000257,0.3205 1.6649798,-10.63604 8.7558803,-19.89383 13.9798753,-25.8016 0.158641,-0.17942 0.331933,-0.345 0.491438,-0.52352 -0.472022,1.51586 -0.75485,3.15447 -0.742514,4.89857 0.0246,3.32996 0.798314,6.55651 1.581231,9.63688 0.55727,2.19148 1.263027,4.69172 2.815183,6.7362 1.521387,2.00344 3.710108,3.30515 5.614405,4.4231 4.471846,2.61884 3.978465,3.85775 8.990492,5.16033 0.488785,0.12719 0.955094,-0.0108 1.319463,-0.28311 0.03804,0.63328 0.04128,1.24827 -0.006,1.80556 1.333323,0.60172 1.627336,0.87523 2.991463,0.34188 0.126636,-1.43591 -0.199933,-2.95623 -0.470077,-4.28957 -0.338473,-1.67866 -0.693806,-3.16009 -0.122809,-4.34301 0.516242,-1.08719 1.793609,-1.54573 2.446614,-1.80556 0.538909,-0.21279 1.112295,-0.3639 1.709416,-0.4594 -1.660924,1.00245 -2.950651,2.6473 -3.360092,4.54063 -0.341892,1.55899 0.152065,3.08979 0.384625,4.25219 1.808572,8.92661 9.169569,16.46577 18.082505,18.34965 1.200015,0.25296 2.546598,0.339 3.835497,0.14412 1.887208,-0.2838 3.563288,-1.16376 4.380394,-3.02352 0.521773,-1.18441 0.541105,-2.41261 0.411325,-3.60589 1.480095,2.81508 2.749434,5.74549 3.750068,8.78222 0.841034,1.19997 3.200252,0.70947 3.039571,-1.02036 -0.346452,-1.05109 -0.738337,-2.08489 -1.143182,-3.11437 8.310883,1.20264 16.47955,3.82213 24.231057,6.8377 16.410456,6.3796 33.156186,13.6961 49.621346,20.7321 0.87817,0.2174 1.7402,-0.6135 1.90173,-1.5172 0.0192,-0.022 0.0408,-0.028 0.0588,-0.048 -0.0164,-0.1719 -0.034,-0.3597 -0.0534,-0.5341 0,0 0,0 0,0 -0.30239,-2.716 -0.78647,-5.6667 -0.0962,-8.1999 0.56069,-2.0821 2.25004,-4.2428 4.88255,-4.7864 1.41198,-0.294 2.98954,-0.7389 4.35367,-0.3526 5.75605,1.6271 10.97887,4.8233 15.26194,9.0119 -2.28581,-1.7301 -4.96148,-3.0645 -7.78857,-3.9957 -0.3453,-0.1984 0.74895,-0.4287 0.47544,-0.7158 -2.57098,-1.5933 -5.62357,-1.5762 -8.70736,-1.4531 -2.49235,0.098 -5.37186,0.3446 -7.20094,2.4199 -1.44275,1.6342 -1.68784,4.1868 -0.95621,6.6347 0.58462,1.9487 1.64168,3.6082 2.8793,5.2458 3.14192,4.1505 5.91632,7.4893 9.44457,10.1389 4.24963,3.1933 9.0362,4.7003 13.46703,4.4713 0.38291,-0.019 0.75214,-0.012 1.11112,-0.064 2.23593,-0.3384 3.93491,-1.2671 4.8238,-2.7885 0.77609,-1.3198 0.6641,-2.8043 0.61966,-3.953 -0.10344,-2.5148 -0.65298,-5.0607 -1.63998,-7.4521 1.14023,1.9709 2.16008,4.0085 2.93271,6.1433 0.0274,0.068 0.13621,0.029 0.16027,0.091 0.35557,0.9915 0.91732,1.9804 1.86435,2.8419 0.63932,0.5811 1.33335,0.9051 2.0513,1.1753 2.28237,0.8567 4.704,1.5218 7.21696,1.875 -16.27266,6.3491 -33.8426,9.6877 -49.86172,12.7619 -1.3949,0.4547 -0.96111,2.6277 0.50216,2.532 18.30482,-3.5116 38.67105,-7.0995 56.9665,-15.278 0.0662,-0.012 0.13155,-0.012 0.19775,-0.022 2.80002,-0.4204 5.76204,-1.1294 8.57916,-2.2542 6.26674,-2.4957 12.09929,-7.2321 19.06007,-13.6219 3.6548,-3.3572 7.2124,-6.8459 10.56637,-10.513 1.52107,3.3818 2.73816,6.7994 3.62183,10.2618 0.63933,2.5026 1.14915,5.4172 0.43803,8.0771 -0.74531,2.7966 -3.1041,5.1367 -6.27678,6.8805 -3.03594,1.6683 -6.37379,2.7666 -9.72768,3.4401 -0.90258,1.1556 -0.64745,1.9494 0.65171,2.6229 3.57611,-0.718 7.04517,-1.7037 10.4435,-3.5737 3.87355,-2.1266 7.0751,-4.9706 8.02896,-8.5365 0.88206,-3.3129 0.46453,-6.8825 -0.26722,-9.7543 -1.05366,-4.1277 -2.56082,-8.1899 -4.50325,-12.2011 2.28557,-2.6535 4.49327,-5.3684 6.49045,-8.24251 1.00856,-1.4496 1.85944,-3.02185 2.21159,-4.77577 0.23247,-1.15896 0.3485,-2.31133 0.29379,-3.38149 -0.0342,-0.60168 0.0829,-1.13568 0.10692,-1.68264 0.0344,-0.79397 -0.0626,-1.62432 -0.0588,-2.46264 1.67417,-3.7999 2.72485,-7.21541 3.39213,-10.58773 1.76754,-8.90612 0.92908,-18.67951 -3.35474,-30.18734 -0.82052,-1.21369 -2.65005,-0.50559 -2.48935,0.95085 4.08893,10.98133 4.66032,20.31992 3.00218,28.67559 -0.0856,0.43219 -0.19966,0.88093 -0.2938,1.31945 -0.70349,-1.7507 -1.99535,-3.1106 -3.99578,-3.38146 -0.18982,0.11712 -0.26121,0.2251 -0.36861,0.33655 -0.58525,-3.35971 -2.82556,-6.06364 -4.74897,-7.80993 -0.1641,-0.15042 -0.23303,-0.29637 -0.40066,-0.44338 -0.20513,-0.8889 -0.70043,-1.48848 -1.1859,-2.33978 -0.72138,-0.0583 -0.72053,1.04616 -1.34618,0.68377 -6.84794,-5.42571 -14.60233,-9.53751 -22.31867,-13.17858 -12.87195,-6.07187 -12.46125,-7.07893 -25.88706,-11.80035 -0.73253,-0.25737 -1.40549,0.31319 -1.69872,1.01495 -0.35644,-0.33134 -0.69802,-0.67794 -1.06307,-0.99893 -0.21907,-0.28639 -0.43709,-0.57086 -0.69443,-0.83335 -0.10416,-0.0164 -0.17204,-0.002 -0.26722,-0.0108 -8.56714,-7.18593 -19.20626,-11.76059 -28.56873,-15.7053 -2.46351,-1.03649 -5.02567,-2.10435 -7.63898,-3.1678 0.15098,-0.2024 0.31707,-0.38704 0.46474,-0.59294 0.42394,-1.40514 -0.77159,-2.29448 -1.98186,-1.4637 -0.27577,0.38464 -0.57801,0.74377 -0.86538,1.11646 -8.02479,-3.20472 -16.59932,-6.31767 -25.41698,-8.45095 -5.81808,-1.4057 -11.82057,-2.3281 -17.93827,-2.88466 1.04507,-0.93969 0.29202,-3.02379 -1.13249,-2.86327 -1.84369,0.74687 -3.65901,1.56528 -5.45946,2.41989 -4.121979,-0.17068 -8.28761,-0.18517 -12.510842,0.0108 -0.402877,-0.42828 -0.940784,-0.67585 -1.47437,-0.47543 -0.348914,0.20485 -0.69315,0.42432 -1.041682,0.63035 -0.81281,0.0515 -1.630599,0.12226 -2.446613,0.18708 12.522718,-3.86532 25.528257,-6.06353 38.542127,-6.30351 1.45985,-0.13675 1.41328,-2.10814 -0.0533,-2.19019 z m -27.00888,11.20741 c -5.454618,3.00915 -10.680424,6.45915 -15.619863,10.21912 -2.259857,1.72309 -4.592986,3.4195 -6.746859,5.18705 -3.603465,2.96072 -7.182989,6.20477 -11.111246,8.79282 -6.478706,4.26331 -12.773021,6.79497 -18.595314,7.13686 0.769238,-1.51454 2.537622,-2.87719 4.038501,-4.0225 12.867246,-9.82521 26.495317,-18.92928 40.433183,-27.17982 2.548954,-0.11076 5.085683,-0.15781 7.601598,-0.13348 z m 6.303503,0.22974 c 8.089727,0.44421 15.953897,1.55161 23.413757,3.35474 8.2502,1.99365 16.2553,4.93419 23.83042,7.98087 -4.25167,4.64681 -9.39495,8.45226 -14.82925,12.37196 -5.44964,3.92824 -11.41766,7.60395 -16.03652,12.66042 -0.80343,0.88547 -1.45941,2.10579 -1.61326,3.5417 -0.19145,1.70601 0.88228,3.03124 1.50109,3.98509 2.18563,3.37906 4.42847,6.80961 6.69345,10.22448 -5.36825,-6.12977 -12.41714,-11.70208 -20.88166,-16.39442 -7.83602,-4.34536 -14.986303,-6.81207 -21.704336,-7.9061 -8.338567,-1.35729 -16.352557,-0.0164 -22.868872,3.32804 -1.490619,0.76582 -3.294703,1.71456 -4.46053,3.54706 -1.534131,2.4086 -1.393551,5.07978 -0.892106,7.41997 -3.700196,-1.68194 -7.407053,-3.51097 -11.084545,-5.38468 -5.289012,-2.69865 -10.498404,-5.57891 -15.566424,-8.64328 12.702713,-12.09949 27.802444,-21.7876 44.124473,-28.51531 3.095695,-0.48668 6.183386,-0.89931 9.257613,-1.1859 -12.118096,7.42811 -23.968087,15.48302 -35.230148,24.08148 -1.8154,1.38463 -5.418673,4.05176 -5.678485,7.78857 -0.05472,0.77265 -0.159721,0.85341 0.363253,1.42094 0.526501,0.57095 0.612817,0.25683 1.388895,0.26722 1.582923,0.0274 3.225043,0.0859 4.855835,-0.16027 5.535108,-0.8342 11.182405,-3.64236 17.120943,-7.55352 4.058169,-2.67012 8.03919,-5.51522 11.70419,-8.52039 2.129933,-1.75045 4.241494,-3.67442 6.463755,-5.36333 6.282055,-4.78783 13.02194,-8.93295 20.128462,-12.34523 z m 49.664067,12.29715 c 2.9492,1.20897 5.8305,2.42066 8.60589,3.5898 10.17233,4.28274 21.44046,9.40986 29.97899,17.71391 0.31759,1.74812 0.11712,3.62055 -0.43803,5.14429 -0.6662,1.82717 -1.88811,3.40651 -3.22654,4.86649 -9.22777,-5.05742 -18.84664,-9.40666 -28.75036,-12.99694 -1.43249,-0.30769 -2.51028,2.70836 -1.21796,3.39212 9.45648,3.42949 18.66384,7.45954 27.52171,12.13157 -0.20185,0.20158 -0.41439,0.4103 -0.60899,0.60899 -7.36077,7.51462 -15.33948,14.45294 -24.16694,20.16583 -3.52142,2.28038 -7.32384,4.63919 -11.42644,5.50757 -1.86669,0.38975 -3.44385,0.32178 -4.6849,-0.0749 -2.13677,-0.68718 -3.91178,-2.64766 -5.44342,-4.61007 -6.28042,-8.04455 -11.83586,-16.84958 -17.30259,-25.29413 -0.51966,-0.80344 -1.04595,-1.60877 -0.97757,-2.22759 0.0615,-0.56069 0.63142,-1.22993 1.12715,-1.77353 4.41031,-4.83083 9.77172,-9.03667 15.1017,-12.87945 5.59736,-4.03596 11.27677,-8.07167 15.9083,-13.26405 z M 22.195778,942.66726 c 5.344309,3.23448 10.872769,6.28384 16.44785,9.12938 6.793239,3.4633 13.574095,6.98214 20.28871,9.42319 10.311239,3.74022 20.867567,7.45694 31.127525,10.86554 28.451637,9.436 57.713317,19.4053 83.713637,34.95763 1.3231,0.6257 3.44597,-1.9667 1.83228,-3.1838 -13.63983,-8.15796 -28.23816,-14.52493 -43.12017,-20.10704 -0.79261,-2.99051 -1.94216,-5.93348 -3.44021,-8.80353 1.18738,1.6297 2.37848,3.25819 3.61649,4.84516 1.8154,2.3214 3.68871,4.80967 6.61868,5.75327 1.47692,0.47179 3.17483,0.63975 5.09622,0.35257 0.3453,-0.0514 0.67392,-0.27394 1.03631,-0.35257 4.56758,-0.96412 8.57918,-3.46864 12.33991,-5.90285 9.00866,-5.82914 17.63334,-12.37453 25.14454,-20.043 0.4125,-0.42103 0.8142,-0.88662 1.21796,-1.34614 8.48586,4.66787 16.64053,9.93227 24.31655,15.90829 6.98207,5.43646 12.89372,10.94072 17.81005,16.52799 -2.236,2.47176 -4.60039,4.83037 -7.15288,6.95521 -1.08035,0.90253 -3.0511,2.49274 -2.81519,4.88254 0.15371,1.5624 1.21133,3.0052 2.80452,3.5042 0.69061,0.2153 1.45213,0.1877 2.20086,0.074 0.64959,-0.1 1.33592,-0.2986 1.94448,-0.6303 -0.38975,-1.4154 -0.42905,-1.5036 -1.41026,-2.5908 -0.61198,0.335 -1.29703,0.3919 -1.82696,0.2243 -0.45128,-0.1401 -0.7904,-0.4826 -0.82801,-0.8655 -0.0719,-0.7418 0.7996,-1.5458 1.78422,-2.36635 2.56037,-2.13181 4.94973,-4.47937 7.21164,-6.93926 3.418,4.12729 6.30446,8.29921 8.65395,12.53221 -5.94641,7.6267 -13.01293,14.3344 -20.98318,19.8561 0.50434,-1.2477 0.0919,-2.3868 -1.2981,-2.4681 -5.3881,2.3249 -11.2873,3.3234 -17.13695,2.8686 -1.3607,0.5539 -1.27053,1.7824 -0.30983,2.8901 2.95389,0.2292 5.98769,0.092 8.92106,-0.3527 3.14331,-0.4711 6.28775,-1.3232 9.23622,-2.5374 -0.85644,0.5837 -1.69258,1.1968 -2.56947,1.7523 -3.64373,2.3067 -7.44157,4.3481 -11.3463,6.1859 -5.04173,0.9567 -9.95495,0.7644 -14.25232,-0.8547 -0.41709,-0.1541 -1.02694,-0.3297 -1.31412,-0.593 -0.41027,-0.3726 -0.92266,-1.1453 -1.1859,-1.8803 -0.0246,-0.068 0.0667,-0.102 0.0427,-0.171 -4.34194,-11.9933 -14.35934,-21.4019 -26.62959,-24.8721 -1.706,-0.482 -3.61371,-1.2432 -5.64109,-0.8226 -3.24106,0.6701 -5.79067,3.5948 -6.81633,7.3932 -0.60956,2.2477 -0.76301,4.5906 -0.70513,6.8164 -15.63701,-6.649 -31.55231,-13.1397 -47.078573,-19.17757 -7.952235,-3.09061 -16.272231,-6.06146 -24.962939,-7.3025 -0.460417,-0.0648 -1.028246,-0.0168 -1.575867,0.12288 -3.345164,-7.31021 -8.136499,-13.95437 -14.07068,-19.38596 -1.846181,-1.69233 -4.495151,-3.55647 -7.548186,-4.80777 -3.247903,-1.32993 -6.46823,-1.49231 -9.268269,-0.3846 -1.82224,0.72479 -3.419695,1.73504 -4.123977,3.20514 -0.802694,1.67458 -0.432961,3.41138 -0.06396,5.0428 -3.235075,-2.78431 -4.21837,-2.1938 -8.408227,-4.64747 -1.750456,-1.02907 -3.467564,-2.21883 -4.636811,-3.76072 -1.196594,-1.57268 -1.623951,-3.65412 -2.136773,-5.66782 -0.738469,-2.90944 -1.715631,-5.88596 -1.736152,-8.85694 -0.01644,-3.15218 1.104291,-5.93214 2.735083,-7.78857 -0.114001,-0.7536 -0.366277,-1.27504 -0.779906,-1.58656 0.338713,-0.34517 0.688477,-0.67875 1.030982,-1.0203 z m 50.860664,0.19228 c 1.873336,0.049 3.785949,0.23029 5.715901,0.54488 6.38298,1.03933 13.159543,3.34705 20.694679,7.52147 8.984258,4.98117 24.584398,15.3916 29.797408,31.64568 -12.75036,-4.67578 -25.66769,-8.84194 -38.355189,-13.05037 -10.242862,-3.39834 -20.634861,-7.52212 -30.908493,-11.2555 -1.977052,-0.71678 -3.964197,-1.52819 -5.956297,-2.38249 -0.751022,-2.5952 -1.076523,-5.24951 0.213612,-7.27574 0.789758,-1.23762 2.261777,-1.94789 3.424184,-2.54278 4.471846,-2.29743 9.754186,-3.35195 15.374111,-3.20515 z m 118.222608,0.45408 c 10.43416,6.12129 11.88337,5.28463 24.06547,11.03111 8.09583,3.81885 16.31217,7.80008 23.18404,13.63263 0.253,2.18122 0.19747,4.49707 -0.36324,7.04069 -0.71702,3.24924 -1.56774,6.52436 -0.7799,9.65824 -1.16889,-1.20688 -3.08986,-1.4098 -4.79175,-0.51816 -1.2342,0.653 -2.16071,1.58913 -2.90602,2.50539 -0.0377,0.0445 -0.0274,0.0569 -0.064,0.10152 -0.41256,0.50882 -0.84311,1.00472 -1.26604,1.50644 -5.03144,-5.61593 -11.01199,-11.13696 -17.99699,-16.57607 -7.64616,-5.95269 -15.74007,-11.30273 -24.15631,-16.08459 1.17354,-1.68202 2.20801,-3.52831 2.93808,-5.53427 0.63692,-1.74664 0.90397,-3.46584 0.83868,-5.08552 0.66943,-0.35288 1.21478,-0.99281 1.29809,-1.67736 z m 50.36389,27.16379 c 1.28207,1.42566 2.18464,3.26798 2.30773,5.20304 0.19473,2.91629 -1.59642,5.75691 -3.9691,8.02359 -0.44444,-2.36242 0.0845,-5.33038 0.6998,-8.13041 0.36924,-1.6684 0.80089,-3.41756 0.96157,-5.09622 z m -195.18403,1.60257 c 1.719651,-0.11268 3.53936,0.88294 4.123977,2.50005 1.380015,0.25518 2.188769,0.42875 2.777802,-0.72652 0.562082,0.47782 1.177503,0.96663 1.656004,1.40493 0.231937,0.21251 0.444889,0.44094 0.673106,0.65707 -2.203925,-1.03012 -4.768223,-1.42763 -7.131521,-0.95621 -1.10771,0.21881 -1.888048,0.68418 -2.585502,1.20726 -0.868381,0.64958 -1.579287,1.57675 -2.003224,2.79385 -0.231661,0.67065 -0.350413,1.3755 -0.405985,2.09404 -0.337381,-0.90775 -0.613597,-1.84071 -0.80663,-2.79383 -0.17778,-0.87865 -0.350449,-2.06733 -0.12828,-3.09299 0.369241,-1.68208 2.103653,-2.98167 3.830205,-3.08765 z m 200.41914,4.19344 c 0.0954,0.19638 0.14167,0.31574 0.24041,0.55554 0.95041,0.12938 1.55271,1.03688 1.88569,2.15282 -0.22071,0.16821 -0.4194,0.39445 -0.55555,0.69446 0.0137,6.40008 -2.80624,12.85591 -7.37723,17.33456 -0.27324,0.71604 -0.0364,1.41913 0.43271,1.86433 -0.82298,1.25527 -1.66984,2.49187 -2.54814,3.70737 -2.40555,-4.07577 -5.28391,-8.09698 -8.64324,-12.06743 0.53661,-0.62784 1.07784,-1.25113 1.59722,-1.89109 0.0377,-0.0479 0.13868,0.0317 0.17642,-0.0164 0.61881,-0.76581 1.13142,-1.56646 1.83228,-1.93912 0.50599,-0.26311 1.13547,-0.2084 1.3782,0.0481 0.1983,0.21197 0.19748,0.62584 0.064,1.07371 -0.19145,0.6359 -0.63888,1.34702 -1.10042,1.96582 0.91283,1.14528 1.00705,1.27464 2.39853,1.73616 0.58803,-0.78288 1.23206,-1.71372 1.57052,-2.84191 0.0799,-0.2664 0.10752,-0.53227 0.13895,-0.79596 0.0556,0.19884 0.16547,0.35635 0.53418,0.42736 0.92651,0.17449 0.93592,-0.25655 1.60259,-0.98828 3.52468,-3.09935 6.31636,-6.71025 6.37296,-11.02041 z m -190.403018,0.40596 c 0.924926,0.91125 1.813936,1.85493 2.671002,2.82591 -0.520549,0.18681 -0.915518,0.62456 -1.223318,1.38357 1.152146,2.41371 2.122252,4.97932 2.970126,7.5161 0.331633,0.99831 0.892754,2.43723 0.352549,3.15171 -0.225636,0.29748 -0.745718,0.48852 -1.292727,0.58764 -1.141898,0.2052 -2.384657,-0.1128 -3.888957,-0.64632 -2.167541,-0.76584 -5.289144,-2.07804 -7.398568,-4.38576 -1.952165,-2.13678 -2.806027,-4.99365 -2.029949,-7.23299 0.15726,-0.46155 0.608557,-0.9808 1.111119,-1.35688 0.324792,-0.24616 0.741241,-0.48973 1.394235,-0.61966 1.969252,-0.37949 4.115037,-0.0137 5.865481,0.96155 1.153251,-0.57811 1.60396,-1.10333 1.469007,-2.18487 z m 5.731933,6.57062 c 0.144409,0.19501 0.280177,0.39614 0.421993,0.59293 -0.04644,0.0545 -0.09216,0.10476 -0.138936,0.16548 -0.09384,-0.25491 -0.186264,-0.50465 -0.283117,-0.75854 z m -41.816783,1.656 c -1.101986,0.2013 -1.632915,1.99959 -0.502129,2.60686 21.863522,8.45826 44.241593,16.34274 66.453829,23.90514 1.432496,0.2975 2.277362,-1.8019 0.865379,-2.4413 -22.171217,-7.5522 -44.48558,-15.60827 -66.314914,-24.04934 -0.17778,-0.0443 -0.344724,-0.05 -0.502165,-0.0218 z m 43.424703,7.97019 c -0.0246,0.0684 -0.0246,0.15564 -0.05328,0.21912 -0.178873,0.40812 -0.525301,0.68449 -0.94019,0.89737 0.277584,-0.19932 0.529513,-0.41701 0.731857,-0.68377 0.105841,-0.1398 0.178873,-0.28764 0.261745,-0.43272 z m 183.907175,0.64104 c 0.0947,0.27805 0.15973,0.54565 0.10692,0.80125 -0.23932,1.20684 -1.1699,2.3484 -2.02461,3.57912 -1.59419,2.2926 -3.28797,4.5207 -5.0321,6.7094 2.53479,-3.5454 4.84981,-7.25132 6.94985,-11.08977 z m -175.408144,0.52885 c 0.123085,0.15528 -0.03396,0.25212 -0.10692,0.5502 -0.04728,-0.1164 -0.10692,-0.2262 -0.154812,-0.34188 0.09216,-0.0708 0.146328,-0.13128 0.261744,-0.20844 z m 139.910924,10.35262 c -0.86552,0.013 -1.74982,0.1188 -2.63358,0.3259 -2.45131,0.5743 -4.67528,1.7098 -6.79496,2.8312 -0.37607,0.2018 -0.64617,0.6011 -1.02566,0.7959 -2.25985,1.1727 -4.7447,2.1849 -7.20627,2.1849 -0.15372,0 -0.31284,-0.082 -0.47011,-0.085 -0.63931,-0.017 -1.39381,-0.08 -2.1528,0.1283 -1.92139,0.5367 -2.90281,2.3137 -3.80881,3.9957 -0.29402,0.5505 -0.88335,1.4094 -0.71583,2.5001 0.12636,0.8205 0.72524,2.2769 3.34407,2.906 2.66328,0.6428 5.56823,0.8602 8.64862,0.3954 1.29915,-0.1948 2.61027,-0.6326 3.97442,-1.0257 3.98977,-1.1487 7.59708,-2.9986 11.20739,-4.749 0.68718,-1.2958 0.29272,-2.2644 -1.14319,-2.5482 -3.5009,1.6992 -7.13983,3.3535 -10.88689,4.4339 -4.10604,1.176 -7.86845,1.5857 -11.15397,0.7959 -0.82052,-0.1983 -1.04639,-0.6073 -1.07373,-0.6517 -0.006,-0.1471 0.20978,-0.5775 0.28847,-0.7212 0.59829,-1.1145 1.30044,-2.049 2.16883,-2.2916 0.34188,-0.092 0.75534,-0.2775 1.23398,-0.267 0.18134,0 0.35835,0.1764 0.53955,0.1764 3.0838,0 5.85219,-1.4556 8.44026,-2.7991 0.38633,-0.1984 0.85643,-0.2328 1.23934,-0.4382 2.04447,-1.0802 3.9509,-2.1373 6.0364,-2.6228 2.58465,-0.6085 4.96843,-0.2889 6.4317,1.0683 1.42907,-0.3282 2.22651,-0.588 2.15813,-2.0512 -1.6359,-1.5129 -4.04887,-2.3246 -6.64536,-2.2864 z m -53.32865,8.7394 c 0.71326,-0.017 1.40643,0 2.04062,0.085 0.35896,0.4274 -0.88869,1.1274 -0.37928,1.3463 2.665,0.4761 5.18308,1.3903 7.45735,2.6282 -3.01283,-1.3196 -6.26765,-2.0875 -9.55138,-2.1582 -1.49062,-0.03 -3.71224,0.078 -5.06952,1.688 -0.80685,0.9641 -0.97993,2.3674 -0.82266,3.8409 0.0374,0.3496 0.11652,0.6804 0.19775,1.0097 -0.68741,-1.0073 -1.28631,-1.9999 -1.60259,-3.0503 -0.43762,-1.4633 -0.32781,-3.0366 0.43802,-3.9049 0.66668,-0.7557 1.81882,-1.1044 2.99149,-1.2821 0.69744,-0.1056 1.44128,-0.082 2.14214,-0.1116 0.71112,-0.028 1.44489,-0.074 2.15814,-0.091 z m -0.49147,4.8024 c 3.65133,0.079 7.25182,1.0825 10.43817,2.874 0.44382,-0.073 0.77956,-0.2297 1.05771,-0.4273 -0.0218,0.095 -0.0667,0.1595 -0.0802,0.2617 1.90089,3.1897 2.65644,6.9678 2.13678,10.6464 -0.0583,0.4138 -0.0494,0.6147 -0.0802,0.6625 0,0 -0.13265,0.1104 -0.45405,0.2136 -2.03421,0.6598 -4.44685,-0.8259 -6.68277,-2.4841 -2.25644,-1.6752 -2.27887,-1.6561 -4.5353,-3.328 -2.32483,-1.7265 -4.49453,-3.678 -4.75437,-6.0951 -0.0752,-0.6633 -0.031,-1.2447 0.25628,-1.5865 0.41026,-0.4889 1.30622,-0.7646 2.69769,-0.7372 z m 11.98735,0.7105 c 0.17806,0.1302 0.35075,0.2651 0.52349,0.4007 -0.13538,0.048 -0.26585,0.097 -0.37927,0.1871 -0.001,-0.1789 -0.0812,-0.3864 -0.14413,-0.5877 z m 3.06093,2.8152 c 2.73754,3.1463 4.33118,7.0917 4.49256,11.0364 0.031,0.7488 0.0905,1.682 -0.29914,2.3452 -0.7248,1.2342 -2.71092,1.3906 -3.54171,1.4316 -3.74704,0.1948 -7.92146,-1.0327 -11.62406,-3.8088 -1.59319,-1.1965 -3.02717,-2.5861 -4.42848,-4.1507 0.14714,0.1116 0.29088,0.238 0.43802,0.3473 2.25986,1.6752 2.24148,1.7062 4.49791,3.3814 2.56756,1.9044 5.35116,3.4238 8.26401,2.9862 0.34188,-0.052 0.68036,-0.09 1.02566,-0.203 0.80342,-0.2563 1.40984,-0.6369 1.82694,-1.1805 0.47181,-0.6222 0.5968,-1.2988 0.68912,-1.9552 0.48848,-3.4796 0.0164,-7.022 -1.34083,-10.2299 z" id="path240"/>
  </g>
</svg>