<?xml version="1.0" encoding="UTF-8" standalone="no"?>
<!-- Created with Inkscape (http://www.inkscape.org/) -->
<svg xmlns:inkscape="http://www.inkscape.org/namespaces/inkscape" xmlns:rdf="http://www.w3.org/1999/02/22-rdf-syntax-ns#" xmlns="http://www.w3.org/2000/svg" xmlns:cc="http://web.resource.org/cc/" xmlns:dc="http://purl.org/dc/elements/1.1/" xmlns:sodipodi="http://sodipodi.sourceforge.net/DTD/sodipodi-0.dtd" xmlns:svg="http://www.w3.org/2000/svg" xmlns:ns1="http://sozi.baierouge.fr" xmlns:xlink="http://www.w3.org/1999/xlink" id="svg1972" sodipodi:docname="KGena_Tuned_Lada_VAZ_2101.svg" inkscape:export-filename="/home/plp/pics/KlausGena_Tuned_Lada_VAZ_2101.png" viewBox="0 0 513.85 331.72" sodipodi:version="0.32" inkscape:export-xdpi="90" version="1.0" inkscape:output_extension="org.inkscape.output.svg.inkscape" inkscape:export-ydpi="90" inkscape:version="0.45.1" sodipodi:docbase="/home/plp/pics/ink-svg">
  <sodipodi:namedview id="base" bordercolor="#666666" inkscape:pageshadow="2" guidetolerance="10" pagecolor="#ffffff" gridtolerance="10000" inkscape:window-height="972" inkscape:zoom="2.3031807" objecttolerance="10" borderopacity="1.0" inkscape:current-layer="layer1" inkscape:cx="256.92261" inkscape:cy="165.85759" inkscape:window-y="0" inkscape:window-x="0" inkscape:window-width="1280" inkscape:pageopacity="0.0" inkscape:document-units="px"/>
  <g id="layer1" inkscape:label="Layer 1" inkscape:groupmode="layer" transform="translate(-118.08 -366.5)">
    <g id="g7414" style="fill:#ff2a2a" transform="translate(539.36 433.83)">
      <path id="path2222" sodipodi:nodetypes="cccsscscsscscccscccscsssccccccccccsscsssc" style="fill-rule:evenodd;color:black;stroke:#110706;stroke-width:1px;fill:#ff2a2a" d="m-339.76 124.28c38.49 20.58 64.72 43.34 105 71.07h15.56c5.06 32.76 20.21 66.09 29.7 67.88 16.07 3.04 38.62-5.33 39.59-7.07 7.76-13.78 2.84-39.6 2.83-39.6 0 0 4.44 25.09 5.66 24.75 70.115-19.63 136.65-38.99 190.21-65.05 0 0 3.294 2.3 6.597-1.3 6.907-7.52 5.52-4.44 9.618-11.11 3.504-5.71 5.148-12.64 7.12-19.41 0 0 5.071-0.71 7.192-3.54 2.122-2.83 1.293-7.78 1.293-7.78l-1.414-2.83c11.42-10.3 14.43-23.06 11.314-37.472 0.942-6.599 2.966-16.635 0-19.799-15.041-16.038-100.72-43.177-149.91-53.033l-1.411-4.242 4.95-1.415s3.535-9.5455 0-12.02c-3.536-2.4753-14.143 2.1209-14.143 2.1209-12.273-18.385-30.656-50.742-38.186-55.154-11-6.451-103.12-15.521-103.94-15.557-54.68-2.387-136.22 3.671-143.54 6.364-7.8 2.869-8.49 7.071-8.49 7.071l-7.07 14.142-31.11 2.829-12.02-10.607 1.41 22.628 5.66 3.535 7.07-2.828v-4.243h9.19l2.12 20.506c0 0.0002-29.18 0.1589-31.11 6.3642-4.15 13.319 9.84 70.889 14.73 77.903 2.93 4.213 12.02 14.607 12.02 14.607 0.22 10.51 8.22 31.26 16.55 33.31 8.46 2.08 26.7-0.32 28.98-2.31 1.4-1.22-1.55-2.27 0.06-3.25s8.33 5.69 7.92 4.54z"/>
      <path id="path3197" style="fill-rule:evenodd;color:black;stroke:#110706;fill:#ff2a2a" d="m-360.27 113.32l12.37 6.37"/>
      <path id="path3214" sodipodi:nodetypes="cssss" style="fill-rule:evenodd;color:black;stroke:#110706;stroke-width:.5;fill:#ff2a2a" d="m-116.67 155.75c1.24-3.23 6.57-16.41 18.736-18.74 7.772-1.49 20.076-0.15 17.677 21.22-1.17 10.42-14.098 27.14-23.333 28.28-6.61 0.82-23.21-4.39-13.08-30.76z"/>
      <path id="path4185" sodipodi:nodetypes="cssss" style="fill-rule:evenodd;color:black;stroke:#110706;stroke-width:.5;fill:#ff2a2a" d="m-105.36 186.51c0.03 0.06-13.95 1.54-16.26-10.25-2.25-11.46 3.84-27.2 8.13-32.18 4.09-4.74 12.67-10.91 19.091-10.25 6.829 0.7 12.599 6.06 13.435 10.96"/>
      <path id="path4187" sodipodi:nodetypes="csssssc" style="fill-rule:evenodd;color:black;stroke:#110706;stroke-width:.5;fill:#eb5454" d="m-107.83 180.5c-0.8 1.06 11.226-0.24 17.674-11.67 5.048-8.94 5.217-16.96 3.182-20.86-2.694-5.16-5.549-9.41-12.021-8.48-7.875 1.13-14.705 13.71-15.555 16.61-0.76 2.59-3.54 10.96-3.18 15.91 0.22 3.2 4.95 9.55 9.9 8.49z"/>
      <path id="path6127" sodipodi:nodetypes="csscc" style="fill-rule:evenodd;color:black;stroke:#110706;stroke-width:1px;fill:#ff2a2a" d="m18.031 190.75s8.858 3.23 14.849 0.71c5.724-2.41 3.728-1 9.314-5.3 4.207-3.25 5.889-9.55 5.889-9.55"/>
      <path id="path6129" sodipodi:nodetypes="csssss" style="fill-rule:evenodd;color:black;stroke:#110706;stroke-width:.5;fill:#ff2a2a" d="m89.75 95.362c-1.22-0.012-2.181-6.977-10-5.5-4.674 0.883-12 7.563-15 16.998-3.136 9.87-2.56 17.67-2 20.75 0.5 2.75-0.436 4.97 5.25 8.25 2.41 1.39 11.244-4.5 11-5.75"/>
      <path id="path7100" sodipodi:nodetypes="cscssssc" style="fill-rule:evenodd;color:black;stroke:#110706;stroke-width:.5;fill:#ff2a2a" d="m69 132.61s8.127 1.17 14.75-8.25c6.399-9.1 6.292-13.96 6.25-14 0 0 1.75-11.748-0.25-15.248-1.961-3.432-5.25-5-10.25-2s-11.75 14.248-12.5 16.248-3.75 14-3 16.75 2.25 5.75 5 6.5z"/>
      <path id="path7102" sodipodi:nodetypes="ccssscs" style="fill-rule:evenodd;color:black;stroke:#110706;stroke-width:.5;fill:#eb5454" d="m77.25 95.112s3.307-1.857 5.75-0.5c2.25 1.25 2.593 6.528 3 9.248 0.411 2.75-2.25 12.48-4.75 16.25-2.259 3.41-9.208 9.61-10.5 8.75 0 1.16-8.25 1.11-6.25-7.5"/>
      <path id="path8073" sodipodi:nodetypes="csssssssscs" style="fill-rule:evenodd;color:black;stroke:#110706;stroke-width:.5;fill:#dd2222" d="m-84.86 24.742c3.412-1.072 12.752-3.838 13.86-4.88 3.191-3 2.247-9.493-0.75-13.5-2.995-4.0038-32.4-50.888-33.75-51.5-7.41-3.352-120.43 4.714-133.75 8.125-1.27 0.327-7.38 2.624-8.25 7.375-2.31 12.629 6.5 60.5 6.5 61s5.5 9.5 11.5 10.5c1.5 0.25 41.1-2.729 55.55-4.093m20.12-2.906c18.89-2.291 45.86-5.875 60.667-8.406"/>
      <path id="path9044" sodipodi:nodetypes="ccssss" style="fill-rule:evenodd;color:black;stroke:#110706;stroke-width:.5;fill:#dd2222" d="m-305.47-39.764c-2.09 0.523-13.38 58.311-11.87 59.854 1.51 0.739 30.39 10.743 28.94 9.753-0.99-0.682 9.83-1.122 10.15-1.018 1.48 0.476 12.23-60.224 11.32-61.518-0.81-1.135-36.84-7.497-38.54-7.071z"/>
      <path id="path9046" sodipodi:nodetypes="cccccc" style="fill-rule:evenodd;color:black;stroke:#110706;stroke-width:.5;fill:#ff2a2a" d="m-263.75-30.218l-12.02 58.336c4.9 0.267 13.68-0.88 13.79 1.061l5.65-0.707 1.06-6.718c-2.47-17.374-4.75-50.049-8.48-51.972z"/>
      <path id="path10017" sodipodi:nodetypes="ccccc" style="fill-rule:evenodd;color:black;stroke:#110706;stroke-width:.5;fill:#dd2222" d="m-341.53-46.128l-11.15 55.404 31.7 9.753 10.91-59.854-31.46-5.303z"/>
      <path id="path10019" style="fill-rule:evenodd;color:black;stroke:#110706;stroke-width:.5;fill:#dd2222" d="m-367.34 2.6622l20.5-43.84-9.19 47.729-11.31-3.8888z"/>
      <path id="path10021" sodipodi:nodetypes="cccc" style="fill-rule:evenodd;color:black;stroke:#110706;stroke-width:.5;fill:#ffffff" d="m-384-12.388l-2.25-15.75h10.25l-8 15.75z"/>
      <path id="path10023" sodipodi:nodetypes="cscccs" style="fill-rule:evenodd;color:black;stroke:#110706;stroke-width:.5;fill:#ff2a2a" d="m-287.79 30.593c-0.47 0 0.16 14.708 1.41 14.849 0.72 0.08 24.4-1.306 24.4-1.768 1.12-1.591 2.33-3.086 5.3-2.828l1.06-7.425c2.63 0 0.62-6.717-1.06-6.01"/>
      <path id="path10025" sodipodi:nodetypes="ccccc" style="fill-rule:evenodd;color:black;stroke:#110706;stroke-width:.5;fill:#ff2a2a" d="m-261.25 33.612v5l2.75-0.5-0.25-4.75-2.5 0.25z"/>
      <path id="path10027" sodipodi:nodetypes="csss" style="fill-rule:evenodd;color:black;stroke:#110706;stroke-width:.5;fill:#ff2a2a" d="m-377.25 125.36c7.18-1.74 11.56-29.736 5.25-48.498-4.06-12.08-10.4-23.332-17.25-23.5-8.38-0.205-4.35 34.707-3.9 38.457"/>
      <path id="path10029" sodipodi:nodetypes="ccsss" style="fill-rule:evenodd;color:black;stroke:#110706;stroke-width:.5;fill:#ff2a2a" d="m-386.75 57.862c-8.19 2.916-5.75 22.25-5.75 22.25-0.9 0 4.77 26.858 9.25 30.998 1.47 1.36 4.01 6.7 10.75 3.75 9-3.94-1.77-61.44-14.25-56.998z"/>
      <path id="path10031" sodipodi:nodetypes="css" style="fill-rule:evenodd;color:black;stroke:#110706;stroke-width:.5;fill:#ff2a2a" d="m-376.53 67.716s-3.45-9.828-9.55-7.601c-8.57 3.129-4.24 53.735 13.79 54.275"/>
      <path id="path10035" sodipodi:nodetypes="csss" style="fill-rule:evenodd;color:black;stroke:#110706;stroke-width:.5;fill:#ff2a2a" d="m-393.5 91.237c-0.36-0.19-10.43-41.684 1.12-42.75 16.04-1.478 28.65 50.837 28 47.5-0.68-3.579 0.26 15.623 4.13 17.253"/>
      <path id="path10037" sodipodi:nodetypes="cssc" style="fill-rule:evenodd;color:black;stroke:#110706;stroke-width:.5;fill:#ff2a2a" d="m-383.25 53.751s-5.33-5.335-9.02-1.591c-6.1 6.196-1.6 38.376-1.41 38.36 0.17-0.014 0 0 0 0"/>
      <path id="path10039" sodipodi:nodetypes="cssss" style="fill-rule:evenodd;color:black;stroke:#110706;stroke-width:.5;fill:#ff2a2a" d="m-201.5 154.11c-11-13.75-13.68 10.15-12.75 22.75 1.35 18.36 3 45.5 11 59 10.09 17.04 12.28-0.58 12.5-1.25 2.87-8.66-3.48-90.44-21.25-93.25"/>
      <path id="path10043" sodipodi:nodetypes="css" style="fill-rule:evenodd;color:black;stroke:#110706;stroke-width:.5;fill:#ff2a2a" d="m-198.25 254.36s12.68 6.01 10.5-33.75c-2.18-39.78-9.75-77.41-22.06-82.25"/>
      <path id="path10045" sodipodi:nodetypes="cs" style="fill-rule:evenodd;color:black;stroke:#110706;stroke-width:.5;fill:#ff2a2a" d="m-211.94 141.42c-5.46-0.9-9.45 29.57-7.46 53.19"/>
      <path id="path10047" sodipodi:nodetypes="css" style="fill-rule:evenodd;color:black;stroke:#110706;stroke-width:.5;fill:#ff2a2a" d="m-147.08 216.21s-25.1-81.67-58.33-89.45c-33.24-7.78-33.59 27.93-30.41 67.17"/>
      <path id="path10049" sodipodi:nodetypes="csc" style="fill-rule:evenodd;color:black;stroke:#110706;stroke-width:.5;fill:#ff2a2a" d="m-212.61 141.55c0.38-1.25 1.21-2.21 2.41-3.37 2.27-2.19 10.78-3.73 16.81-4.7"/>
      <path id="path10051" sodipodi:nodetypes="ccccccc" style="fill-rule:evenodd;color:black;stroke:#110706;stroke-width:.5;fill:#ff2a2a" d="m-97.581 128.17c59.829-12.84 119.66-25.67 178.19-42.423l-0.706 3.536c-3.411 0.603-19.153 9.424-17.678 37.127-20.859 7.42-146.72 44.9-146.72 44.9-0.004 0 15.552-33.94-12.732-38.19-0.707-4.59-0.354-4.95-0.354-4.95z"/>
      <path id="rect3173" sodipodi:nodetypes="ccccc" style="fill-rule:evenodd;color:black;stroke:#110706;stroke-width:.5;fill:#dd2222" d="m-110.5 204.11l30.5-8.25-4.5 20.75-31.5 9 5.5-21.5z"/>
      <path id="rect3176" sodipodi:nodetypes="ccccc" style="fill-rule:evenodd;color:black;stroke:#110706;stroke-width:.5;fill:#dd2222" d="m-74.5 194.61l28-8.75-3.5 19.75-30 8.75 5.5-19.75z"/>
      <path id="rect3179" sodipodi:nodetypes="ccccc" style="fill-rule:evenodd;color:black;stroke:#110706;stroke-width:.5;fill:#dd2222" d="m-42.75 184.11l26.25-7.5-5 18.75-26 8.5 4.75-19.75z"/>
      <path id="rect3182" sodipodi:nodetypes="ccccc" style="fill-rule:evenodd;color:black;stroke:#110706;stroke-width:.5;fill:#dd2222" d="m-12 175.36l23.75-8-6 18.75-22.75 7.75 5-18.5z"/>
      <path id="rect3185" sodipodi:nodetypes="ccccc" style="fill-rule:evenodd;color:black;stroke:#110706;stroke-width:.5;fill:#dd2222" d="m14.5 165.86l22.75-6.75-4 17.5-24.75 8.5 6-19.25z"/>
      <path id="rect3188" sodipodi:nodetypes="ccccc" style="fill-rule:evenodd;color:black;stroke:#110706;stroke-width:.5;fill:#dd2222" d="m-68 175.11l27-7.75-0.75 10.25-27.25 8 1-10.5z"/>
      <path id="rect3191" sodipodi:nodetypes="ccccc" style="fill-rule:evenodd;color:black;stroke:#110706;stroke-width:.5;fill:#dd2222" d="m-36.5 166.36l25.75-7.5-1.25 10-25.75 7.25 1.25-9.75z"/>
      <path id="rect3194" sodipodi:nodetypes="ccccc" style="fill-rule:evenodd;color:black;stroke:#110706;stroke-width:.5;fill:#dd2222" d="m-5.75 157.36l22-6.75-0.5 9-22 6.25 0.5-8.5z"/>
      <path id="rect3197" sodipodi:nodetypes="ccccc" style="fill-rule:evenodd;color:black;stroke:#110706;stroke-width:.5;fill:#dd2222" d="m20.5 148.61l22.25-5.5-0.25 9-22.5 6.25 0.5-9.75z"/>
      <path id="rect3200" sodipodi:nodetypes="ccccc" style="fill-rule:evenodd;color:black;stroke:#110706;stroke-width:.5;fill:#dd2222" d="m39.75 158.61l22-7.75-2.5 15.75-22 9 2.5-17z"/>
      <path id="rect3203" sodipodi:nodetypes="ccccc" style="fill-rule:evenodd;color:black;stroke:#110706;stroke-width:.5;fill:#dd2222" d="m-113.14 189.69l21.57-4.59 0.353 9.9-21.213 5.3-0.71-10.61z"/>
      <path id="rect3206" sodipodi:nodetypes="ccccc" style="fill-rule:evenodd;color:black;stroke:#110706;stroke-width:.5;fill:#ff2a2a" d="m66.468 137.01l13.435-3.89v7.78l-12.728 3.89-0.707-7.78z"/>
      <path id="path3209" sodipodi:rx="2.8284271" sodipodi:ry="4.7729707" style="fill-rule:evenodd;color:black;stroke:#110706;stroke-width:.5;fill:#ff2a2a" sodipodi:type="arc" d="m-143.19 131.89a2.8284 4.773 0 1 1 -5.66 0 2.8284 4.773 0 1 1 5.66 0z" transform="translate(.35355 .70711)" sodipodi:cy="131.88593" sodipodi:cx="-146.01755"/>
      <path id="rect3211" sodipodi:nodetypes="ccccc" style="fill-rule:evenodd;color:black;stroke:#110706;stroke-width:.5;fill:#ff2a2a" d="m-2.1213 116.15l9.1924-1.41-1.0607 19.44-9.1924 2.48 1.0607-20.51z"/>
      <path id="rect3214" sodipodi:nodetypes="cccccccc" style="fill-rule:evenodd;color:black;stroke:#110706;stroke-width:.5;fill:#ff2a2a" d="m-261.5 43.05l12.5 3.562c-3.89 2.292-6.94 4.584-9.5 6.875 0.62 35.332 0.65 70.073 2.5 106.62l-71.25-44.25c-3.17-29.844-5.49-59.318-2.25-88.498 2.48-1.512 5.35-3.843 10.5-6.687 10.68 3.863 22.26 8.135 31 10.062"/>
      <path id="rect3217" sodipodi:nodetypes="cccccc" style="fill-rule:evenodd;color:black;stroke:#110706;stroke-width:.5;fill:#ff2a2a" d="m-327.25 116.11l-33.75-20.248c-8.65-43.552-15.78-48.778-22.56-53.625 0.19-9.682 0.86-22.076 1.68-34.375 4.25-1.5671 6.01-2.308 8.38-3.2498l54.5 16"/>
      <path id="rect3220" sodipodi:nodetypes="ccccc" style="fill-rule:evenodd;color:black;stroke:#110706;stroke-width:.5;fill:#ff2a2a" d="m-228.5 49.862c55.28-4.473 109.52-7.204 172.5-24.5 51.822 16.05 141.75 37.895 138.5 60-60.374 16.728-120.61 29.698-181 42.498 3.172-25.82-90.57-57.203-130-77.998z"/>
      <path id="rect3223" sodipodi:nodetypes="ccccc" style="fill-rule:evenodd;color:black;stroke:#110706;stroke-width:.5;fill:#ff2a2a" d="m-204.35 219.21l13.25-10.78 0.36 3.36-12.73 10.96-0.88-3.54z"/>
      <path id="rect3226" sodipodi:nodetypes="ccccc" style="fill-rule:evenodd;color:black;stroke:#110706;stroke-width:.5;fill:#ff2a2a" d="m-200.08 230.29l9.69-11.78 0.18 3.53-8.31 10.79-1.56-2.54z"/>
      <path id="rect3229" sodipodi:nodetypes="ccccc" style="fill-rule:evenodd;color:black;stroke:#110706;stroke-width:.5;fill:#ff2a2a" d="m-208.24 203.66l16.08-5.13 0.36 3.71-15.74 5.16-0.7-3.74z"/>
      <path id="rect3232" sodipodi:nodetypes="ccccc" style="fill-rule:evenodd;color:black;stroke:#110706;stroke-width:.5;fill:#ff2a2a" d="m-209.86 186.86l16.29 1.06 0.53 4.07h-16.79l-0.03-5.13z"/>
      <path id="rect3235" sodipodi:nodetypes="ccccc" style="fill-rule:evenodd;color:black;stroke:#110706;stroke-width:.5;fill:#ff2a2a" d="m-208.83 171.25l13.85 6.95 0.53 4.24-15.27-7.3 0.89-3.89z"/>
      <path id="rect3238" sodipodi:nodetypes="ccccc" style="fill-rule:evenodd;color:black;stroke:#110706;stroke-width:.5;fill:#ff2a2a" d="m-205.1 159.9l7.29 6.1 1.59 6.9-11.44-9.64 2.56-3.36z"/>
      <path id="path3187" style="fill-rule:evenodd;color:black;stroke:#110706;stroke-width:.5;fill:#ff2a2a" d="m-377.42 112.44l7.25-11.67-0.18 0.18"/>
      <path id="path3189" style="fill-rule:evenodd;color:black;stroke:#110706;stroke-width:.5;fill:#ff2a2a" d="m-379.36 110.5l7.6-11.318-0.71-1.414-9.54 9.902-1.42-2.48 9.72-9.19-0.88-3.182-11.14 6.895"/>
      <path id="path3191" style="fill-rule:evenodd;color:black;stroke:#110706;stroke-width:.5;fill:#ff2a2a" d="m-387.14 96l11.67-6.01 0.17-2.298-13.79 0.707h0.18"/>
      <path id="path3193" style="fill-rule:evenodd;color:black;stroke:#110706;stroke-width:.5;fill:#ff2a2a" d="m-389.62 85.04l13.09-0.707v-3.005l-13.62-3.713"/>
      <path id="path3195" sodipodi:nodetypes="ccccccc" style="fill-rule:evenodd;color:black;stroke:#110706;stroke-width:.5;fill:#ff2a2a" d="m-388.91 64.888l12.91 8.838 0.7-1.767m-15.02 2.475l13.26 4.065 0.35-2.298-13.08-8.485"/>
      <path id="rect5152" sodipodi:nodetypes="cccc" style="fill-rule:evenodd;color:black;stroke:#110706;stroke-width:.5;fill:#ff2a2a" d="m-144.25 46.856l55.508 17.324 1.414 5.657-56.922-22.981z"/>
      <path id="rect5155" sodipodi:nodetypes="ccccc" style="fill-rule:evenodd;color:black;stroke:#110706;stroke-width:.5;fill:#dd2222" d="m-88.035 62.059l22.981-3.889c0.898 1.979-1.284-4.063 6.011 7.071-9.075-0.232-18.149-0.154-27.224 4.243l-1.768-7.425z"/>
      <path id="rect5158" sodipodi:nodetypes="ccccc" style="fill-rule:evenodd;color:black;stroke:#110706;stroke-width:.5;fill:#dd2222" d="m-55.154 56.402l23.688-4.242 4.242 7.071c-9.393-0.166-18.292 0.657-25.809 4.242l-2.121-7.071z"/>
      <path id="rect5161" sodipodi:nodetypes="cccscc" style="fill-rule:evenodd;color:black;stroke:#110706;stroke-width:.5;fill:#ff2a2a" d="m-111.37 42.26l55.509 15.556 1.767 6.011c-2.799 0.314-2.591 0.863-4.175-0.444-1.583-1.307-3.542-4.116-5.017-5.567-15.91-3.18-32.173-9.692-48.084-15.556z"/>
      <path id="path5164" sodipodi:nodetypes="cc" style="fill-rule:evenodd;color:black;stroke:#110706;stroke-width:.5;fill:#ff2a2a" d="m-31.75 51.362l-49.5-13.5"/>
      <path id="path5166" sodipodi:nodetypes="ccccc" style="fill-rule:evenodd;color:black;stroke:#110706;stroke-width:.5;fill:#ff2a2a" d="m-149.75 40.612c0.32-1.666-0.19-3.333-0.5-5-29.06-4.568-57.6-4.38-86-3 23.62 2.207 51.37 1.829 70.25 7 5.7 1.187 11.21 1.805 16.25 1z"/>
      <path id="path5168" sodipodi:nodetypes="cccccc" style="fill-rule:evenodd;color:black;stroke:#110706;stroke-width:.5;fill:#ff2a2a" d="m-77.5 27.112v1.5l-0.25 1.75h-6.25c-10.093-8.134-38.69-6.391-65.75-3.5 21.81-6.155 45.13-8.196 72.25 0.25z"/>
      <path id="rect5183" sodipodi:nodetypes="ccccc" style="fill-rule:evenodd;color:black;stroke:#110706;stroke-width:.5;fill:#ff2a2a" d="m-329.87 43.674l10.96 4.597v6.364l-11.1-4.95 0.14-6.011z"/>
      <path id="rect5185" sodipodi:nodetypes="ccccc" style="fill-rule:evenodd;color:black;stroke:#110706;stroke-width:.5;fill:#ff2a2a" d="m-381.13 23.168l7.82 3.225-0.29 4.45-7.68-3.329 0.15-4.346z"/>
      <path id="path5191" style="fill-rule:evenodd;color:black;stroke:#110706;stroke-width:.5;fill:#ff2a2a" d="m-234.5 133.86l-135.5-70.498"/>
      <path id="path5193" sodipodi:nodetypes="ccccc" style="fill-rule:evenodd;color:black;stroke:#110706;stroke-width:.5;fill:#ff2a2a" d="m-398.09 48.069c-6.3-3.666-16.21-8.04-18.91-11.707"/>
      <path id="path5195" sodipodi:nodetypes="csccccs" style="fill-rule:evenodd;color:black;stroke:#110706;stroke-width:.5;fill:#ff2a2a" d="m-287.43 42.999c-11.15-4.026-59.82-21.89-71.15-26.089-11.32-4.2-22.77-8.5243-34.42-13.048-9-1.489-18-4.8742-27-3.9998m299 132.5c-6.37-24.85-87.56-54.948-137-78.998-11.25-4.125-11.09-4.261-22.21-8.262"/>
      <path id="path5197" style="fill-rule:evenodd;color:black;stroke:#110706;stroke-width:.5;fill:#ff2a2a" d="m-373.71 4.4299l-11.31-5.3033-3.89-6.0104"/>
      <path id="path5199" sodipodi:nodetypes="csc" style="fill-rule:evenodd;color:black;stroke:#110706;stroke-width:.5;fill:#ff2a2a" transform="translate(-33.5,-4)" d="m-203 196.86c-1-13.09-8.67-79.5 25-79.5 33.57 0 64.34 59.65 64.5 105.61"/>
      <path id="path5202" sodipodi:nodetypes="cs" style="fill-rule:evenodd;color:black;stroke:#110706;stroke-width:.5;fill:#ff2a2a" d="m-399.12 56.279c-0.82-4.854 0.9-17.381 15.57-14.174"/>
      <path id="path5252" style="fill-rule:evenodd;color:black;stroke:#110706;stroke-width:0.3;fill:#ffffff" d="m-97.875-9.7812l2.969 21.531 12.906 2.625-15.875-24.156z"/>
      <path id="path5250" sodipodi:nodetypes="cccc" style="fill-rule:evenodd;color:black;stroke:#110706;stroke-width:0.3;fill:#ff2a2a" d="m-94.906 11.75l-2.969-21.531m-5.215-7.938l3.746 28.531"/>
      <path id="rect5227" sodipodi:nodetypes="ccccscccccc" style="fill-rule:evenodd;color:black;stroke:#110706;stroke-width:0.3;fill:#ffffff" d="m-117.75-38.375l-34.75 1.75 9.5 38.5 8 1.625c2.37-3.63 7.3-6.125 13-6.125 7.67 0 13.97 4.4734 14.47 10.281l0.03 0.719c0 0.2633-0.01 0.5225-0.03 0.7812l8.186 1.6558-3.746-28.531-14.66-20.656z"/>
      <path id="rect5254" sodipodi:nodetypes="ccccc" style="fill-rule:evenodd;color:black;stroke:#110706;stroke-width:0.3;fill:#ffffff" d="m-163.5-36.638l5.5 0.5 6.5 35-8.5-3.4998-3.5-32z"/>
      <path id="rect5257" sodipodi:nodetypes="cccccc" style="fill-rule:evenodd;color:black;stroke:#110706;stroke-width:0.3;fill:#ffffff" d="m-177.75-35.388l8.75-0.25 3 26-10.5-21.5-5.5-0.5 4.25-3.75z"/>
      <path id="path5260" sodipodi:nodetypes="ccc" style="fill-rule:evenodd;color:black;stroke:#110706;stroke-width:0.3;fill:#ffffff" d="m-127.5 5.3622l14.5 2.25c-3.52-5.4248-7.68-5.9157-14.5-2.25z"/>
      <path id="rect6231" sodipodi:nodetypes="ccccc" style="fill-rule:evenodd;color:black;stroke:#110706;stroke-width:0.3;fill:#ffffff" d="m-208.75-32.888h10l0.75 4.25-10.75 9v-13.25z"/>
      <path id="rect6234" sodipodi:nodetypes="cccc" style="fill-rule:evenodd;color:black;stroke:#110706;stroke-width:0.3;fill:#ffffff" d="m-199.25-17.888l-0.25 8.0002-10.25-0.2502 10.5-7.75z"/>
      <path id="path6237" sodipodi:nodetypes="ccc" style="fill-rule:evenodd;color:black;stroke:#110706;stroke-width:0.3;fill:#ffffff" d="m-195.25-33.388c-1.5 5.75 4.75-0.5 4.75-0.5l-4.75 0.5z"/>
      <path id="path6239" style="fill-rule:evenodd;color:black;stroke:#110706;stroke-width:0.3;fill:#ff2a2a" d="m-362.5-8.3878l9.75-0.25 0.75-2.7502h-9l-1.5 3.0002z"/>
      <path id="path6241" style="fill-rule:evenodd;color:black;stroke:#110706;stroke-width:0.3;fill:#ffffff" d="m-345.5-22.888h16.75l11.75-9.5-27 1.75-1.5 7.75z"/>
      <path id="path6243" style="fill-rule:evenodd;color:black;stroke:#110706;stroke-width:0.3;fill:#ffffff" d="m-346.25-20.388l15.25-0.75-9.75 6.5h-6.25l0.75-5.75z"/>
      <path id="path6245" style="fill-rule:evenodd;color:black;stroke:#110706;stroke-width:0.3;fill:#ff2a2a" d="m-344-12.138l-3.5 3.0002v-3.2502l3.5 0.25z"/>
      <path id="path6247" style="fill-rule:evenodd;color:black;stroke:#110706;stroke-width:0.3;fill:#ffffff" d="m-352-13.888l1.5-6h-6l-4 6.75 8.5-0.75z"/>
      <path id="path6249" style="fill-rule:evenodd;color:black;stroke:#110706;stroke-width:0.3;fill:#ffffff" d="m-355.75-21.888l4-7.5 3.75-0.5-1.25 7.5-6.5 0.5z"/>
      <path id="path6251" style="fill-rule:evenodd;color:black;stroke:#110706;stroke-width:0.3;fill:#ffffff" d="m-332.75-10.638l17.5-1.75 0.75-2-15.25 0.75-3 3z"/>
      <path id="path6253" style="fill-rule:evenodd;color:black;stroke:#110706;stroke-width:0.3;fill:#ffffff" d="m-308-12.638l4.75-0.25 0.25-2.25h-4.75l-0.25 2.5z"/>
      <path id="path6255" style="fill-rule:evenodd;color:black;stroke:#110706;stroke-width:0.3;fill:#ffffff" d="m-295.5-13.638l-0.75-2 8.75-0.5 0.5 1.5-8.5 1z"/>
      <path id="path6257" style="fill-rule:evenodd;color:black;stroke:#110706;stroke-width:0.3;fill:#ffffff" d="m-295.5-18.388h8.5v-6l-8.25 0.25-0.25 5.75z"/>
      <path id="path6259" style="fill-rule:evenodd;color:black;stroke:#110706;stroke-width:0.3;fill:#ffffff" d="m-295-26.638h7l0.5-3.25-7.5-4.5v7.75z"/>
      <path id="path6261" style="fill-rule:evenodd;color:black;stroke:#110706;stroke-width:0.3;fill:#ffffff" d="m-301.75-25.638h-4.25l0.25-4 4.25-3.5-0.25 7.5z"/>
      <path id="path6263" style="fill-rule:evenodd;color:black;stroke:#110706;stroke-width:0.3;fill:#ffffff" d="m-302.75-23.388h-3.75l-1 6.25h4.75v-6.25z"/>
      <path id="path6265" style="fill-rule:evenodd;color:black;stroke:#110706;stroke-width:0.3;fill:#ffffff" d="m-313.25-22.888l-1.25 6-9.75 0.5 11.75-9.75-0.75 3.25z"/>
      <path id="path6267" sodipodi:nodetypes="cccc" style="fill-rule:evenodd;color:black;stroke:#110706;stroke-width:0.3;fill:#ffffff" d="m-341.25-42.388l17.25-1c-4-1.349-9.91-2.317-17.25-3v4z"/>
      <path id="path6269" style="fill-rule:evenodd;color:black;stroke:#110706;stroke-width:0.3;fill:#ffffff" d="m-234.5-15.888l-13.75-0.25v-3.25l12.75-3.25 1 6.75z"/>
      <path id="path6271" style="fill-rule:evenodd;color:black;stroke:#110706;stroke-width:0.3;fill:#ffffff" d="m-249-27.138v-2.5l11.5-1-11.5 3.5z"/>
      <path id="path6273" style="fill-rule:evenodd;color:black;stroke:#110706;stroke-width:0.3;fill:#ffffff" d="m-267.5-25.888l-2.5 0.25-11.5-8.5 15 2.75-1 5.5z"/>
    </g>
  </g>
  <metadata>
    <rdf:RDF>
      <cc:Work>
        <dc:format>image/svg+xml</dc:format>
        <dc:type rdf:resource="http://purl.org/dc/dcmitype/StillImage"/>
        <cc:license rdf:resource="http://creativecommons.org/licenses/publicdomain/"/>
        <dc:publisher>
          <cc:Agent rdf:about="http://openclipart.org/">
            <dc:title>Openclipart</dc:title>
          </cc:Agent>
        </dc:publisher>
        <dc:title>Lada</dc:title>
        <dc:date>2007-10-09T11:00:24</dc:date>
        <dc:description>modified - svg from the Tuned Lada Vaz 2101 by KlausGena</dc:description>
        <dc:source>https://openclipart.org/detail/6736/lada-by-peileppe</dc:source>
        <dc:creator>
          <cc:Agent>
            <dc:title>Peileppe</dc:title>
          </cc:Agent>
        </dc:creator>
        <dc:subject>
          <rdf:Bag>
            <rdf:li>car</rdf:li>
            <rdf:li>remix</rdf:li>
            <rdf:li>russian</rdf:li>
            <rdf:li>transportation</rdf:li>
            <rdf:li>vehicle</rdf:li>
          </rdf:Bag>
        </dc:subject>
      </cc:Work>
      <cc:License rdf:about="http://creativecommons.org/licenses/publicdomain/">
        <cc:permits rdf:resource="http://creativecommons.org/ns#Reproduction"/>
        <cc:permits rdf:resource="http://creativecommons.org/ns#Distribution"/>
        <cc:permits rdf:resource="http://creativecommons.org/ns#DerivativeWorks"/>
      </cc:License>
    </rdf:RDF>
  </metadata>
</svg>